<?xml version="1.0" standalone="no"?><!-- Generator: Gravit.io --><svg xmlns="http://www.w3.org/2000/svg" xmlns:xlink="http://www.w3.org/1999/xlink" style="isolation:isolate" viewBox="0 0 1366 768" width="1366" height="768"><g opacity="0.25"><path d=" M 169 452 L 339 674 L 706.462 657 L 1238 632 L 1111 361 C 1111 361 1268 64.006 1268 64 C 1285.341 41.587 1093.938 2.175 954 51 C 887.527 74.193 823.42 175.438 816.01 199.75 C 793 275.244 739.546 167.17 706.462 192.73 C 698.482 198.892 695.102 40 695.102 40 C 695.102 40 689.674 198.82 681.64 192.532 C 648.43 166.534 598.722 284.501 571 198.766 C 562.346 172.001 536.672 70.908 474 51 C 335.917 7.137 108.514 61.852 126 85 Q 126.018 85.03 299 309.31 L 169 452 Z " fill-rule="evenodd" fill="rgb(48,62,129)" fill-opacity="0.2"/></g></svg>