<?xml version="1.0" standalone="no"?><!-- Generator: Gravit.io --><svg xmlns="http://www.w3.org/2000/svg" xmlns:xlink="http://www.w3.org/1999/xlink" style="isolation:isolate" viewBox="0 0 851 315" width="851" height="315"><g><g><ellipse vector-effect="non-scaling-stroke" cx="420" cy="157.5" rx="77.60869565217388" ry="76.75000000000003" fill="rgb(235,235,235)"/><g><path d=" M 384.683 198.081 L 455.317 198.081 C 459.008 198.081 462 194.227 462 189.472 L 462 125.528 C 462 120.774 459.008 116.919 455.317 116.919 L 384.683 116.919 C 380.992 116.919 378 120.774 378 125.528 L 378 189.472 C 378 194.227 380.992 198.081 384.683 198.081 Z " fill="rgb(224,224,224)"/><path d=" M 423.819 198.081 L 455.317 198.081 C 459.008 198.081 462 194.227 462 189.472 L 462 125.528 C 462 120.774 459.008 116.919 455.317 116.919 L 384.683 116.919 C 380.992 116.919 378 120.774 378 125.528 L 423.819 198.081 Z " fill="rgb(217,217,217)"/><path d=" M 387.06 198.081 L 455.317 198.081 C 459.008 198.081 462 194.227 462 189.472 L 462 126.757 L 387.06 198.081 Z " fill="rgb(238,238,238)"/><path d=" M 423.334 198.081 L 455.317 198.081 C 459.008 198.081 462 194.227 462 189.472 L 462 126.757 L 410.016 176.233 L 423.334 198.081 Z " fill="rgb(224,224,224)"/><path d=" M 455.317 121.839 L 384.683 121.839 C 380.99 121.839 378 120.771 378 125.528 L 378 189.472 C 378 194.227 380.992 198.081 384.683 198.081 L 387.545 198.081 L 387.545 127.988 L 452.455 127.988 L 452.455 198.081 L 455.317 198.081 C 459.008 198.081 462 194.227 462 189.472 L 462 125.528 C 462 120.771 459.01 121.839 455.317 121.839 Z " fill="rgb(202,55,55)"/><path d=" M 455.317 116.919 L 384.683 116.919 C 382.907 116.907 381.201 117.81 379.946 119.426 C 378.691 121.043 377.99 123.24 378 125.528 C 378 128.497 380.903 131.081 380.903 131.081 L 420 166.743 L 459.097 131.081 C 459.097 131.081 462 128.497 462 125.528 C 462.01 123.24 461.309 121.043 460.054 119.426 C 458.799 117.81 457.093 116.907 455.317 116.919 L 455.317 116.919 Z " fill="rgb(245,245,245)"/><path d=" M 456.743 117.121 L 420 150.122 L 383.257 117.121 C 380.178 117.96 377.981 121.474 378 125.528 C 378 128.497 380.903 131.081 380.903 131.081 L 420 166.743 L 459.097 131.081 C 459.097 131.081 462 128.497 462 125.528 C 462.019 121.474 459.822 117.96 456.743 117.121 L 456.743 117.121 Z " fill="rgb(232,79,75)"/></g></g><g><ellipse vector-effect="non-scaling-stroke" cx="77.60869565217389" cy="157.5" rx="77.60869565217389" ry="76.75000000000003" fill="rgb(235,235,235)"/><g><path d=" M 36.522 150.325 L 36.522 193.16 C 36.522 199.386 41.745 204.432 48.188 204.432 L 108.855 204.432 C 115.299 204.432 120.522 199.386 120.522 193.16 L 120.522 150.325 L 36.522 150.325 Z " fill="rgb(255,204,128)"/><path d=" M 120.522 150.325 L 120.522 134.543 C 120.522 128.319 115.299 123.271 108.855 123.271 L 48.188 123.271 C 41.745 123.271 36.522 128.319 36.522 134.543 L 36.522 150.325 L 120.522 150.325 Z " fill="rgb(121,85,72)"/><ellipse vector-effect="non-scaling-stroke" cx="78.52173913043478" cy="166.1061941251598" rx="18.66666666666667" ry="18.035759897828854" fill="rgb(55,71,79)"/><path d=" M 78.522 186.396 C 66.944 186.396 57.522 177.295 57.522 166.106 C 57.522 154.92 66.944 145.815 78.522 145.815 C 90.102 145.815 99.522 154.92 99.522 166.106 C 99.522 177.295 90.102 186.396 78.522 186.396 Z  M 78.522 150.325 C 69.516 150.325 62.189 157.404 62.189 166.106 C 62.189 174.807 69.516 181.888 78.522 181.888 C 87.525 181.888 94.855 174.807 94.855 166.106 C 94.855 157.404 87.525 150.325 78.522 150.325 Z " fill="rgb(255,243,224)"/><ellipse vector-effect="non-scaling-stroke" cx="78.52173913043494" cy="166.1061941251596" rx="11.666666666666686" ry="11.27234993614303" fill="rgb(84,110,122)"/><ellipse vector-effect="non-scaling-stroke" cx="73.8550724637682" cy="161.59725415070235" rx="4.666666666666671" ry="4.508939974457235" fill="rgb(187,222,251)"/><path d=" M 41.189 125.575 L 41.189 150.325 L 45.855 150.325 L 45.855 123.498 C 44.158 123.844 42.563 124.554 41.189 125.575 Z " fill="rgb(244,67,54)"/><path d=" M 48.188 123.271 C 47.389 123.271 46.609 123.35 45.855 123.498 L 45.855 150.325 L 50.522 150.325 L 50.522 123.271 L 48.188 123.271 Z " fill="rgb(255,235,59)"/><rect x="50.522" y="123.271" width="4.667" height="27.054" transform="matrix(1,0,0,1,0,0)" fill="rgb(139,195,74)"/><rect x="55.189" y="123.271" width="4.667" height="27.054" transform="matrix(1,0,0,1,0,0)" fill="rgb(33,150,243)"/><g><rect x="97.189" y="130.035" width="13.999" height="13.527" transform="matrix(1,0,0,1,0,0)" fill="rgb(62,39,35)"/><path d=" M 59.856 149.197 C 59.856 151.066 58.288 152.579 56.355 152.579 L 44.689 152.579 C 42.756 152.579 41.189 151.066 41.189 149.197 C 41.189 147.33 42.756 145.815 44.689 145.815 L 56.355 145.815 C 58.288 145.815 59.856 147.33 59.856 149.197 Z " fill="rgb(62,39,35)"/></g></g></g><g><ellipse vector-effect="non-scaling-stroke" cx="762.3913043478256" cy="157.49999999999994" rx="77.60869565217376" ry="76.74999999999994" fill="rgb(235,235,235)"/><g><path d=" M 804.391 137.034 L 779.609 121.331 L 762.391 135.483 L 788.121 150.472 L 804.391 137.034 Z  M 720.391 164.296 L 745.904 179.262 L 762.391 166.597 L 737.955 151.03 L 720.391 164.296 Z  M 745.904 121.331 L 720.391 137.788 L 737.955 151.029 L 762.391 135.482 L 745.904 121.331 Z  M 762.391 166.597 L 779.215 179.262 L 804.391 164.296 L 788.121 150.472 L 762.391 166.597 Z " fill="rgb(30,136,229)"/><path d=" M 781.513 183.283 L 778.834 184.882 L 776.345 183.001 L 762.391 172.5 L 748.755 182.976 L 746.269 184.891 L 743.57 183.303 L 736.725 179.287 L 736.725 185.528 L 762.363 202.492 L 788.058 185.657 L 788.058 179.397 L 781.513 183.283 Z " fill="rgb(30,136,229)"/></g></g><g><ellipse vector-effect="non-scaling-stroke" cx="199.04347826086945" cy="157.50000000000009" rx="12.782608695652186" ry="12.350574712643692" fill="rgb(235,235,235)"/><ellipse vector-effect="non-scaling-stroke" cx="235.56521739130434" cy="157.50000000000009" rx="12.782608695652186" ry="12.350574712643692" fill="rgb(235,235,235)"/><ellipse vector-effect="non-scaling-stroke" cx="273.9130434782608" cy="157.50000000000009" rx="12.782608695652186" ry="12.350574712643692" fill="rgb(235,235,235)"/><ellipse vector-effect="non-scaling-stroke" cx="314.08695652173924" cy="157.50000000000009" rx="12.782608695652186" ry="12.350574712643692" fill="rgb(235,235,235)"/></g><g><ellipse vector-effect="non-scaling-stroke" cx="537.4782608695652" cy="153.20670498084291" rx="12.78260869565213" ry="12.35057471264372" fill="rgb(235,235,235)"/><ellipse vector-effect="non-scaling-stroke" cx="574.0000000000001" cy="153.20670498084291" rx="12.78260869565213" ry="12.35057471264372" fill="rgb(235,235,235)"/><ellipse vector-effect="non-scaling-stroke" cx="612.3478260869566" cy="153.20670498084291" rx="12.78260869565213" ry="12.35057471264372" fill="rgb(235,235,235)"/><ellipse vector-effect="non-scaling-stroke" cx="652.5217391304351" cy="153.20670498084291" rx="12.78260869565213" ry="12.35057471264372" fill="rgb(235,235,235)"/></g></g></svg>