<?xml version="1.0" standalone="no"?><!-- Generator: Gravit.io --><svg xmlns="http://www.w3.org/2000/svg" xmlns:xlink="http://www.w3.org/1999/xlink" style="isolation:isolate" viewBox="0 0 1280 800" width="1280" height="800"><defs><filter id="8rzFYWPZfnrsvnxyD6IfvpTBwXCd5m3U" x="-200%" y="-200%" width="400%" height="400%" filterUnits="objectBoundingBox" color-interpolation-filters="sRGB"><feOffset xmlns="http://www.w3.org/2000/svg" in="SourceGraphic" dx="0" dy="0"/><feGaussianBlur xmlns="http://www.w3.org/2000/svg" stdDeviation="2.146804531419514" result="pf_100_offsetBlur"/><feComposite xmlns="http://www.w3.org/2000/svg" in="SourceGraphic" in2="pf_100_offsetBlur" result="pf_100_inverse" operator="out"/><feFlood xmlns="http://www.w3.org/2000/svg" flood-color="#533636" flood-opacity="0.5" result="pf_100_color"/><feComposite xmlns="http://www.w3.org/2000/svg" in="pf_100_color" in2="pf_100_inverse" operator="in" result="pf_100_shadow"/><feComposite xmlns="http://www.w3.org/2000/svg" in="pf_100_shadow" in2="SourceGraphic" operator="over"/></filter></defs><g filter="url(#8rzFYWPZfnrsvnxyD6IfvpTBwXCd5m3U)" style="mix-blend-mode:multiply;"><linearGradient id="_lgradient_3" x1="0" y1="0.5" x2="1" y2="0.5" gradientTransform="matrix(1267.797,0,0,550,0,0)" gradientUnits="userSpaceOnUse"><stop offset="0%" stop-opacity="1" style="stop-color:rgb(194,51,175)"/><stop offset="100%" stop-opacity="1" style="stop-color:rgb(37,36,128)"/></linearGradient><path d=" M 0 0 L 1266 0 Q 1282.592 355.748 1146 528 C 1057.464 538.499 931.754 440.777 804 433.125 C 743.366 429.493 612.967 506.357 558 512.875 C 464.628 523.948 459.069 379.431 289.322 415.25 Q 159.542 442.635 0 550 L 0 0 Z " fill="url(#_lgradient_3)"/></g><g><path d="M 865.8 30 L 1132.2 30 C 1160.789 30 1184 53.211 1184 81.8 L 1184 684.2 C 1184 712.789 1160.789 736 1132.2 736 L 865.8 736 C 837.211 736 814 712.789 814 684.2 L 814 81.8 C 814 53.211 837.211 30 865.8 30 Z" style="stroke:none;fill:#747474;stroke-miterlimit:10;"/><path d="M 885.351 54 L 1112.649 54 C 1137.127 54 1157 73.873 1157 98.351 L 1157 615.649 C 1157 640.127 1137.127 660 1112.649 660 L 885.351 660 C 860.873 660 841 640.127 841 615.649 L 841 98.351 C 841 73.873 860.873 54 885.351 54 Z" style="stroke:none;fill:#D1D1D1;stroke-miterlimit:10;"/><path d="M 867.318 82.5 L 871.682 82.5 C 879.032 82.5 885 88.468 885 95.818 L 885 626.182 C 885 633.532 879.032 639.5 871.682 639.5 L 867.318 639.5 C 859.968 639.5 854 633.532 854 626.182 L 854 95.818 C 854 88.468 859.968 82.5 867.318 82.5 Z" style="stroke:none;fill:#E8E8E8;stroke-miterlimit:10;"/><path d="M 984.115 677 L 1009.885 677 C 1017.123 677 1023 682.877 1023 690.115 L 1023 706.885 C 1023 714.123 1017.123 720 1009.885 720 L 984.115 720 C 976.877 720 971 714.123 971 706.885 L 971 690.115 C 971 682.877 976.877 677 984.115 677 Z" style="stroke:none;fill:#8B8B8B;stroke-miterlimit:10;"/><path d="M 986.704 686 L 1005.296 686 C 1009.824 686 1013.5 689.676 1013.5 694.204 L 1013.5 702.796 C 1013.5 707.324 1009.824 711 1005.296 711 L 986.704 711 C 982.176 711 978.5 707.324 978.5 702.796 L 978.5 694.204 C 978.5 689.676 982.176 686 986.704 686 Z" style="stroke:none;fill:#D1D1D1;stroke-miterlimit:10;"/></g></svg>